# xmcd CD database file
#
# Track frame offsets:
#	150
#	19620
#	33395
#	49310
#	66735
#	79408
#	94378
#	113728
#	131423
#	151518
#	169970
#	186825
#	206065
#	217640
#	233498
#	251353
#
# Disc length: 3485 seconds
#
# Revision: 0
# Processed by: cddbd v1.5.1PL0 Copyright (c) Steve Scherf et al.
# Submitted via: CDex 1.51
#
DISCID=d50d9b10
DTITLE=A Taste Of Ireland - A Taste Of Ireland
DYEAR=1900
DGENRE=Country
TTITLE0=The Isle Of Innisfree
TTITLE1=The Wild Rover
TTITLE2=Danny Boy
TTITLE3=The Mountain Of Mourne
TTITLE4=Slievenamon
TTITLE5=Galway Bay
TTITLE6=Forty Shades Of Green
TTITLE7=If We Only Had Old Ireland Over Here
TTITLE8=Medley: The Rose Of Traley, The Banks Of My Own Lovely Lee, Molly Malone
TTITLE9=In An Irish Country Home
TTITLE10=I'll Take You Home Again Kathleen
TTITLE11=The Rose Of Allendale
TTITLE12=Medley: When Irish Eyes Are Smiling, How Can You Buy Killarney, Too-Ra-Loo-Ra-LoNoreen Bawn
TTITLE13=Noreen Bawn
TTITLE14=Sweet Bantry Bay
TTITLE15=The Knights Of St. Patrick - The Irish Washer Woman
EXTD=
EXTT0=
EXTT1=
EXTT2=
EXTT3=
EXTT4=
EXTT5=
EXTT6=
EXTT7=
EXTT8=
EXTT9=
EXTT10=
EXTT11=
EXTT12=
EXTT13=
EXTT14=
EXTT15=
PLAYORDER=
